<svg id="visual" viewBox="0 0 960 540" width="960" height="540" xmlns="http://www.w3.org/2000/svg" xmlns:xlink="http://www.w3.org/1999/xlink" version="1.1"><path d="M0 136L20 136.8C40 137.7 80 139.3 120 139.3C160 139.3 200 137.7 240 136.8C280 136 320 136 360 134.2C400 132.3 440 128.7 480 127.8C520 127 560 129 600 129C640 129 680 127 720 127.8C760 128.7 800 132.3 840 133.3C880 134.3 920 132.7 940 131.8L960 131L960 0L940 0C920 0 880 0 840 0C800 0 760 0 720 0C680 0 640 0 600 0C560 0 520 0 480 0C440 0 400 0 360 0C320 0 280 0 240 0C200 0 160 0 120 0C80 0 40 0 20 0L0 0Z" fill="#82ffe2"></path><path d="M0 347L20 346C40 345 80 343 120 338.5C160 334 200 327 240 324.3C280 321.7 320 323.3 360 322.3C400 321.3 440 317.7 480 316.8C520 316 560 318 600 323.5C640 329 680 338 720 337C760 336 800 325 840 319.5C880 314 920 314 940 314L960 314L960 129L940 129.8C920 130.7 880 132.3 840 131.3C800 130.3 760 126.7 720 125.8C680 125 640 127 600 127C560 127 520 125 480 125.8C440 126.7 400 130.3 360 132.2C320 134 280 134 240 134.8C200 135.7 160 137.3 120 137.3C80 137.3 40 135.7 20 134.8L0 134Z" fill="#6efad9"></path><path d="M0 541L20 541C40 541 80 541 120 541C160 541 200 541 240 541C280 541 320 541 360 541C400 541 440 541 480 541C520 541 560 541 600 541C640 541 680 541 720 541C760 541 800 541 840 541C880 541 920 541 940 541L960 541L960 312L940 312C920 312 880 312 840 317.5C800 323 760 334 720 335C680 336 640 327 600 321.5C560 316 520 314 480 314.8C440 315.7 400 319.3 360 320.3C320 321.3 280 319.7 240 322.3C200 325 160 332 120 336.5C80 341 40 343 20 344L0 345Z" fill="#58f4d0"></path></svg>